<svg width="26" height="26" viewBox="0 0 26 26" fill="none" xmlns="http://www.w3.org/2000/svg">
<g clip-path="url(#clip0_27_835)">
<path d="M22.75 7.27952C22.0319 7.59466 21.2607 7.8088 20.4528 7.90576C21.2811 7.41286 21.9176 6.63714 22.2114 5.71193C21.4402 6.16444 20.5833 6.49572 19.6693 6.67349C18.939 5.90181 17.8944 5.41699 16.7478 5.41699C14.5363 5.41699 12.7491 7.19468 12.7491 9.38044C12.7491 9.69153 12.7817 9.99454 12.8511 10.2854C9.52558 10.1198 6.5714 8.54412 4.6006 6.14019C4.25785 6.72602 4.05791 7.40882 4.05791 8.13201C4.05791 9.50568 4.76789 10.7218 5.8451 11.4329C5.18409 11.4167 4.56387 11.2349 4.02526 10.9359V10.9844C4.02526 12.9075 5.40443 14.5075 7.2365 14.8711C6.90192 14.96 6.54692 15.0084 6.18377 15.0084C5.92671 15.0084 5.67373 14.9842 5.43299 14.9357C5.94303 16.5114 7.42012 17.6588 9.17467 17.6911C7.80775 18.7537 6.07768 19.388 4.2048 19.388C3.88245 19.388 3.56419 19.3678 3.25 19.3315C5.01271 20.4708 7.11817 21.1253 9.3746 21.1253C16.7437 21.1253 20.7669 15.0812 20.7669 9.84103C20.7669 9.6673 20.7629 9.4976 20.7547 9.32791C21.534 8.7744 22.2114 8.07544 22.75 7.27952Z" fill="#1BBDD4"/>
</g>
<defs>
<clipPath id="clip0_27_835">
<rect width="26" height="26" fill="white"/>
</clipPath>
</defs>
</svg>
