<svg width="26" height="26" viewBox="0 0 26 26" fill="none" xmlns="http://www.w3.org/2000/svg">
<g clip-path="url(#clip0_27_839)">
<path d="M19.0465 13C19.0465 12.5969 19 12.2093 18.907 11.8372H23V19.8372C23 20.7054 22.6977 21.4496 22.093 22.0698C21.4884 22.6899 20.7519 23 19.8837 23H6.11628C5.24806 23 4.51163 22.6899 3.90698 22.0698C3.30233 21.4496 3 20.7054 3 19.8372V11.8372H7.04651C6.9845 12.3333 6.95349 12.7209 6.95349 13C6.95349 14.6434 7.54264 16.062 8.72093 17.2558C9.89923 18.4496 11.3256 19.0465 13 19.0465C14.6434 19.0465 16.062 18.4496 17.2558 17.2558C18.4496 16.062 19.0465 14.6434 19.0465 13ZM19.8837 3C20.7519 3 21.4884 3.30232 22.093 3.90698C22.6977 4.51163 23 5.24806 23 6.11628V9.51163H17.9302C16.7209 7.80621 15.0775 6.95349 13 6.95349C10.8605 6.95349 9.21705 7.80621 8.06977 9.51163H3V6.11628C3 5.24806 3.30233 4.51163 3.90698 3.90698C4.51163 3.30232 5.24806 3 6.11628 3H19.8837ZM21.3721 6.86047V5.18605C21.3721 4.81396 21.1861 4.62791 20.814 4.62791H19.1395C18.7674 4.62791 18.5814 4.81396 18.5814 5.18605V6.86047C18.5814 6.9845 18.6357 7.10853 18.7442 7.23256C18.8527 7.35659 18.9845 7.41861 19.1395 7.41861H20.814C21.1861 7.41861 21.3721 7.23257 21.3721 6.86047ZM16.7209 13C16.7209 14.0233 16.3566 14.8992 15.6279 15.6279C14.8992 16.3566 14.0233 16.7209 13 16.7209C11.9767 16.7209 11.1008 16.3566 10.3721 15.6279C9.64341 14.8992 9.27907 14.0233 9.27907 13C9.27907 11.9457 9.64341 11.062 10.3721 10.3488C11.1008 9.63567 11.9767 9.27907 13 9.27907C14.0233 9.27907 14.8992 9.63567 15.6279 10.3488C16.3566 11.062 16.7209 11.9457 16.7209 13Z" fill="#EA1A65"/>
</g>
<defs>
<clipPath id="clip0_27_839">
<rect width="26" height="26" fill="white"/>
</clipPath>
</defs>
</svg>
