<svg width="26" height="26" viewBox="0 0 26 26" fill="none" xmlns="http://www.w3.org/2000/svg">
<g clip-path="url(#clip0_27_944)">
<path d="M20.7946 15.361C20.3895 14.9705 20.0543 14.7392 19.9217 14.3638C19.8739 14.2311 19.8591 14.1553 19.8739 13.996C19.8923 13.7041 20.1353 13.3249 21.7448 11.1333C22.415 10.2195 23.2879 9.11607 23.2879 8.28948C23.2879 7.75484 23.0743 7.62213 22.3045 7.62213H18.8095C18.5038 7.62213 18.2939 8.05439 18.1687 8.41839C18.0361 8.7824 17.782 9.34358 17.1596 10.5456C16.5077 11.8082 15.6349 12.9192 15.2703 13.0936C15.1671 13.1429 15.1009 13.1429 15.0088 13.1315C14.9535 13.1277 14.8283 13.0936 14.7178 12.9533C14.611 12.8168 14.4379 12.5779 14.5042 10.3332C14.5411 9.07816 14.6773 8.20606 14.4232 7.67142C14.3716 7.56525 14.2575 7.4515 14.1949 7.406C13.8303 7.13678 12.8064 7.04199 11.9299 7.04199C11.0534 7.04199 10.3757 7.14437 10.0406 7.24675C9.70546 7.34913 9.32612 7.58041 9.14934 7.83067C9.03149 7.98992 9.3519 7.9103 9.66494 8.05439C9.85277 8.1416 10.1032 8.27809 10.1953 8.5056C10.5746 9.51799 10.652 10.3181 10.4457 11.7475C10.3942 12.0964 10.3389 12.6462 10.1327 12.9874C10.0185 13.177 9.7607 13.1618 9.68336 13.1391C8.92469 12.9002 8.33175 11.8764 7.73881 10.6745C7.12008 9.4194 6.80336 8.53973 6.63394 8.17951C6.46453 7.8193 6.20673 7.62213 5.76847 7.62213H2.63435C2.3876 7.62213 2.16663 7.83067 2.16663 8.05817C2.16663 8.59281 3.04315 10.1474 3.57348 11.266C4.52734 13.2794 5.77952 15.2208 7.46259 17.1091C9.22668 19.1111 11.6353 19.4865 12.405 19.4865C13.1747 19.4865 13.775 19.4561 13.9776 19.4144C14.0733 19.3954 14.1728 19.35 14.2464 19.2931C14.5816 19.0239 14.519 18.5158 14.5447 18.1176C14.5668 17.7081 14.611 17.1697 14.8762 16.855C15.123 16.5592 15.3992 16.4758 15.7527 16.654C16.0842 16.8247 16.3199 17.109 16.563 17.3896C17.038 17.9205 17.4726 18.5158 18.0398 18.9556C18.3013 19.1566 18.5812 19.2817 18.8832 19.3803C19.2846 19.5054 19.6639 19.513 20.0764 19.4902C20.5331 19.4713 20.8793 19.4751 21.4464 19.4751C22.0136 19.4751 22.7539 19.4978 23.008 19.3045C23.1295 19.2059 23.2916 19.0618 23.2916 18.7547C23.2989 18.1745 22.7207 17.2114 20.7946 15.361Z" fill="#2B74B9"/>
</g>
<defs>
<clipPath id="clip0_27_944">
<rect width="26" height="26" fill="white"/>
</clipPath>
</defs>
</svg>
