<svg width="36" height="42" viewBox="0 0 36 42" fill="none" xmlns="http://www.w3.org/2000/svg">
<path d="M18 0C9 0 0 1.10526 0 8.8421V29.8421C0 31.894 0.829686 33.8619 2.30653 35.3129C3.78338 36.7638 5.78642 37.5789 7.875 37.5789L4.5 40.8947V42H9.5175L14.0175 37.5789H22.5L27 42H31.5V40.8947L28.125 37.5789C30.2136 37.5789 32.2166 36.7638 33.6935 35.3129C35.1703 33.8619 36 31.894 36 29.8421V8.8421C36 1.10526 27.945 0 18 0ZM7.875 33.1579C6.97989 33.1579 6.12145 32.8086 5.48851 32.1867C4.85558 31.5649 4.5 30.7215 4.5 29.8421C4.5 28.9627 4.85558 28.1193 5.48851 27.4975C6.12145 26.8757 6.97989 26.5263 7.875 26.5263C8.77011 26.5263 9.62855 26.8757 10.2615 27.4975C10.8944 28.1193 11.25 28.9627 11.25 29.8421C11.25 30.7215 10.8944 31.5649 10.2615 32.1867C9.62855 32.8086 8.77011 33.1579 7.875 33.1579ZM15.75 17.6842H4.5V8.8421H15.75V17.6842ZM20.25 17.6842V8.8421H31.5V17.6842H20.25ZM28.125 33.1579C27.2299 33.1579 26.3714 32.8086 25.7385 32.1867C25.1056 31.5649 24.75 30.7215 24.75 29.8421C24.75 28.9627 25.1056 28.1193 25.7385 27.4975C26.3714 26.8757 27.2299 26.5263 28.125 26.5263C29.0201 26.5263 29.8785 26.8757 30.5115 27.4975C31.1444 28.1193 31.5 28.9627 31.5 29.8421C31.5 30.7215 31.1444 31.5649 30.5115 32.1867C29.8785 32.8086 29.0201 33.1579 28.125 33.1579Z" fill="#175F93"/>
</svg>
