<svg width="48" height="36" viewBox="0 0 48 36" fill="none" xmlns="http://www.w3.org/2000/svg">
<path d="M46.8741 10.5H41.2613L39.7013 6.6C38.0981 2.59031 34.2722 0 29.9531 0H18.0469C13.7288 0 9.9019 2.59031 8.29784 6.6L6.73784 10.5H1.12596C0.393775 10.5 -0.143412 11.1881 0.0347128 11.8978L0.597213 14.1478C0.7219 14.6484 1.1719 15 1.68846 15H3.57003C2.31096 16.0997 1.50003 17.6981 1.50003 19.5V24C1.50003 25.5112 2.07753 26.8753 3.00003 27.9309V33C3.00003 34.6566 4.34346 36 6.00002 36H9.00002C10.6566 36 12 34.6566 12 33V30H36V33C36 34.6566 37.3435 36 39 36H42C43.6566 36 45 34.6566 45 33V27.9309C45.9225 26.8762 46.5 25.5122 46.5 24V19.5C46.5 17.6981 45.6891 16.0997 44.431 15H46.3125C46.8291 15 47.2791 14.6484 47.4038 14.1478L47.9663 11.8978C48.1435 11.1881 47.6063 10.5 46.8741 10.5ZM13.8685 8.82844C14.5519 7.12031 16.2066 6 18.0469 6H29.9531C31.7935 6 33.4482 7.12031 34.1316 8.82844L36 13.5H12L13.8685 8.82844ZM9.00002 23.9812C7.20002 23.9812 6.00002 22.785 6.00002 20.9906C6.00002 19.1962 7.20002 18 9.00002 18C10.8 18 13.5 20.6916 13.5 22.4859C13.5 24.2803 10.8 23.9812 9.00002 23.9812ZM39 23.9812C37.2 23.9812 34.5 24.2803 34.5 22.4859C34.5 20.6916 37.2 18 39 18C40.8 18 42 19.1962 42 20.9906C42 22.785 40.8 23.9812 39 23.9812Z" fill="#175F93"/>
</svg>
