<svg width="46" height="42" viewBox="0 0 46 42" fill="none" xmlns="http://www.w3.org/2000/svg">
<path d="M44.4792 5.8125C45.1813 5.8125 45.75 5.24613 45.75 4.54688V2.01562C45.75 1.31637 45.1813 0.75 44.4792 0.75H1.27083C0.568698 0.75 0 1.31637 0 2.01562V4.54688C0 5.24613 0.568698 5.8125 1.27083 5.8125H2.54008V36.1875H1.27083C0.568698 36.1875 0 36.7539 0 37.4531V39.9844C0 40.6836 0.568698 41.25 1.27083 41.25H20.3333V34.9219C20.3333 34.2258 20.9052 33.6562 21.6042 33.6562H24.1458C24.8448 33.6562 25.4167 34.2258 25.4167 34.9219V41.25H44.4792C45.1813 41.25 45.75 40.6836 45.75 39.9844V37.4531C45.75 36.7539 45.1813 36.1875 44.4792 36.1875H43.2083V5.8125H44.4792ZM20.3333 9.35625C20.3333 8.85 20.8417 8.34375 21.35 8.34375H24.4C24.9083 8.34375 25.4167 8.85 25.4167 9.35625V12.3938C25.4167 12.9 24.9083 13.4062 24.4 13.4062H21.35C20.8417 13.4062 20.3333 12.9 20.3333 12.3938V9.35625ZM20.3333 16.95C20.3333 16.4438 20.8417 15.9375 21.35 15.9375H24.4C24.9083 15.9375 25.4167 16.4438 25.4167 16.95V19.9875C25.4167 20.4937 24.9083 21 24.4 21H21.35C20.8417 21 20.3333 20.4937 20.3333 19.9875V16.95ZM10.1667 9.35625C10.1667 8.85 10.675 8.34375 11.1833 8.34375H14.2333C14.7417 8.34375 15.25 8.85 15.25 9.35625V12.3938C15.25 12.9 14.7417 13.4062 14.2333 13.4062H11.1833C10.675 13.4062 10.1667 12.9 10.1667 12.3938V9.35625ZM14.2333 21H11.1833C10.675 21 10.1667 20.4937 10.1667 19.9875V16.95C10.1667 16.4438 10.675 15.9375 11.1833 15.9375H14.2333C14.7417 15.9375 15.25 16.4438 15.25 16.95V19.9875C15.25 20.4937 14.7417 21 14.2333 21ZM15.25 31.125C15.25 26.931 18.6638 23.5312 22.875 23.5312C27.0862 23.5312 30.5 26.931 30.5 31.125H15.25ZM35.5833 19.9875C35.5833 20.4937 35.075 21 34.5667 21H31.5167C31.0083 21 30.5 20.4937 30.5 19.9875V16.95C30.5 16.4438 31.0083 15.9375 31.5167 15.9375H34.5667C35.075 15.9375 35.5833 16.4438 35.5833 16.95V19.9875ZM35.5833 12.3938C35.5833 12.9 35.075 13.4062 34.5667 13.4062H31.5167C31.0083 13.4062 30.5 12.9 30.5 12.3938V9.35625C30.5 8.85 31.0083 8.34375 31.5167 8.34375H34.5667C35.075 8.34375 35.5833 8.85 35.5833 9.35625V12.3938Z" fill="#175F93"/>
</svg>
