<svg width="46" height="46" viewBox="0 0 46 46" fill="none" xmlns="http://www.w3.org/2000/svg">
<path d="M44.9544 16.0062L40.8172 11.8691C40.4835 11.5398 40.0384 11.3475 39.5698 11.3301C39.1013 11.3128 38.6432 11.4716 38.286 11.7753C37.7345 12.2448 37.0267 12.4899 36.303 12.4621C35.5793 12.4343 34.8924 12.1356 34.3785 11.6253C33.8684 11.1115 33.5699 10.4248 33.5421 9.70126C33.5144 8.97776 33.7593 8.27021 34.2285 7.71875C34.5322 7.36151 34.691 6.90346 34.6737 6.4349C34.6563 5.96634 34.464 5.52129 34.1347 5.1875L29.9938 1.04562C29.6439 0.696347 29.1696 0.500183 28.6752 0.500183C28.1808 0.500183 27.7066 0.696347 27.3566 1.04562L20.7613 7.64C20.3541 8.04865 20.047 8.546 19.8641 9.09312C19.8285 9.19831 19.7691 9.29388 19.6906 9.37241C19.6121 9.45094 19.5165 9.51032 19.4113 9.54593C18.864 9.72885 18.3665 10.0363 17.9582 10.4441L1.04568 27.3566C0.696408 27.7065 0.500244 28.1807 0.500244 28.6752C0.500244 29.1696 0.696408 29.6438 1.04568 29.9937L5.18756 34.1309C5.52135 34.4602 5.9664 34.6525 6.43496 34.6699C6.90352 34.6872 7.36157 34.5284 7.71881 34.2247C8.26901 33.7514 8.97773 33.5036 9.70295 33.5308C10.4282 33.5581 11.1163 33.8584 11.6295 34.3715C12.1426 34.8847 12.4429 35.5728 12.4701 36.298C12.4974 37.0233 12.2495 37.732 11.7763 38.2822C11.4726 38.6394 11.3138 39.0975 11.3311 39.566C11.3485 40.0346 11.5408 40.4796 11.8701 40.8134L16.0072 44.9506C16.3572 45.2999 16.8314 45.4961 17.3258 45.4961C17.8203 45.4961 18.2945 45.2999 18.6444 44.9506L35.5569 28.0381C35.9645 27.6299 36.2719 27.1329 36.4551 26.5859C36.4905 26.4804 36.5499 26.3845 36.6287 26.3058C36.7074 26.2271 36.8033 26.1676 36.9088 26.1322C37.4556 25.9492 37.9527 25.6421 38.361 25.235L44.9554 18.6397C45.3034 18.2898 45.4986 17.8163 45.4985 17.3228C45.4983 16.8293 45.3027 16.3559 44.9544 16.0062ZM23.5447 13.2266C23.4055 13.3659 23.2401 13.4764 23.0581 13.5518C22.8761 13.6272 22.681 13.666 22.484 13.666C22.287 13.666 22.0919 13.6272 21.9099 13.5518C21.7278 13.4764 21.5625 13.3659 21.4232 13.2266L20.3441 12.1475C20.0697 11.8648 19.9175 11.4854 19.9204 11.0914C19.9234 10.6974 20.0813 10.3204 20.36 10.0418C20.6387 9.76324 21.0158 9.60552 21.4098 9.60273C21.8038 9.59993 22.1831 9.75229 22.4657 10.0269L23.5447 11.105C23.6841 11.2443 23.7946 11.4097 23.87 11.5917C23.9454 11.7737 23.9842 11.9688 23.9842 12.1658C23.9842 12.3628 23.9454 12.5579 23.87 12.7399C23.7946 12.9219 23.6841 13.0873 23.5447 13.2266ZM27.6697 17.3516C27.3885 17.6327 27.0071 17.7906 26.6094 17.7906C26.2118 17.7906 25.8304 17.6327 25.5491 17.3516L24.5179 16.3203C24.3786 16.181 24.2681 16.0156 24.1927 15.8336C24.1173 15.6516 24.0785 15.4565 24.0785 15.2595C24.0785 15.0625 24.1173 14.8674 24.1927 14.6854C24.2681 14.5034 24.3786 14.3381 24.5179 14.1987C24.7992 13.9174 25.1808 13.7594 25.5786 13.7594C25.7757 13.7594 25.9707 13.7982 26.1527 13.8736C26.3347 13.9489 26.5001 14.0594 26.6394 14.1987L27.6707 15.23C27.8105 15.3693 27.9214 15.5348 27.9972 15.717C28.0729 15.8993 28.1119 16.0946 28.112 16.292C28.1121 16.4893 28.0733 16.6848 27.9977 16.8671C27.9221 17.0494 27.8113 17.215 27.6716 17.3544L27.6697 17.3516ZM31.7947 21.4766C31.6555 21.6159 31.4901 21.7264 31.3081 21.8018C31.1261 21.8772 30.931 21.916 30.734 21.916C30.5369 21.916 30.3419 21.8772 30.1599 21.8018C29.9778 21.7264 29.8125 21.6159 29.6732 21.4766L28.6419 20.4453C28.3675 20.1626 28.2153 19.7832 28.2183 19.3892C28.2212 18.9952 28.3791 18.6182 28.6578 18.3396C28.9365 18.061 29.3136 17.9033 29.7076 17.9005C30.1016 17.8977 30.4809 18.0501 30.7635 18.3247L31.7947 19.3559C31.9349 19.495 32.0463 19.6604 32.1224 19.8425C32.1986 20.0247 32.238 20.2202 32.2384 20.4176C32.2389 20.6151 32.2003 20.8107 32.125 20.9932C32.0496 21.1757 31.939 21.3416 31.7994 21.4812L31.7947 21.4766ZM35.9601 25.6522C35.8208 25.7915 35.6554 25.902 35.4734 25.9774C35.2914 26.0528 35.0963 26.0916 34.8993 26.0916C34.7023 26.0916 34.5072 26.0528 34.3252 25.9774C34.1432 25.902 33.9778 25.7915 33.8385 25.6522L32.766 24.5741C32.6237 24.4352 32.5105 24.2694 32.4329 24.0864C32.3553 23.9034 32.3148 23.7067 32.3139 23.5079C32.3129 23.3091 32.3515 23.1121 32.4274 22.9284C32.5032 22.7446 32.6149 22.5778 32.7558 22.4375C32.8967 22.2973 33.0641 22.1865 33.2482 22.1115C33.4323 22.0365 33.6295 21.9989 33.8283 22.0008C34.0271 22.0028 34.2235 22.0442 34.4062 22.1227C34.5888 22.2012 34.7541 22.3152 34.8922 22.4581L35.9657 23.5353C36.1049 23.6747 36.2154 23.8401 36.2907 24.0221C36.366 24.2042 36.4048 24.3993 36.4047 24.5963C36.4046 24.7933 36.3657 24.9884 36.2902 25.1703C36.2147 25.3523 36.1041 25.5176 35.9647 25.6569L35.9601 25.6522Z" fill="#175F93"/>
</svg>
