<svg width="43" height="39" viewBox="0 0 43 39" fill="none" xmlns="http://www.w3.org/2000/svg">
<path d="M11 7.5V1.5C11 1.10218 11.158 0.720644 11.4393 0.43934C11.7206 0.158035 12.1022 0 12.5 0C12.8978 0 13.2794 0.158035 13.5607 0.43934C13.842 0.720644 14 1.10218 14 1.5V7.5C14 7.89782 13.842 8.27936 13.5607 8.56066C13.2794 8.84196 12.8978 9 12.5 9C12.1022 9 11.7206 8.84196 11.4393 8.56066C11.158 8.27936 11 7.89782 11 7.5ZM18.5 9C18.8978 9 19.2794 8.84196 19.5607 8.56066C19.842 8.27935 20 7.89782 20 7.5V1.5C20 1.10218 19.842 0.720644 19.5607 0.43934C19.2794 0.158035 18.8978 0 18.5 0C18.1022 0 17.7206 0.158035 17.4393 0.43934C17.158 0.720644 17 1.10218 17 1.5V7.5C17 7.89782 17.158 8.27935 17.4393 8.56066C17.7206 8.84196 18.1022 9 18.5 9ZM24.5 9C24.8978 9 25.2794 8.84196 25.5607 8.56066C25.842 8.27935 26 7.89782 26 7.5V1.5C26 1.10218 25.842 0.720644 25.5607 0.43934C25.2794 0.158035 24.8978 0 24.5 0C24.1022 0 23.7206 0.158035 23.4393 0.43934C23.158 0.720644 23 1.10218 23 1.5V7.5C23 7.89782 23.158 8.27935 23.4393 8.56066C23.7206 8.84196 24.1022 9 24.5 9ZM42.5 19.5V21C42.4976 22.9074 41.7693 24.7423 40.4632 26.1323C39.157 27.5223 37.3708 28.3631 35.4673 28.484C34.442 31.3782 32.6982 33.9644 30.3995 36H35C35.3978 36 35.7794 36.158 36.0607 36.4393C36.342 36.7206 36.5 37.1022 36.5 37.5C36.5 37.8978 36.342 38.2794 36.0607 38.5607C35.7794 38.842 35.3978 39 35 39H25.4039C25.3969 39.0001 25.3897 39.0011 25.3828 39.0011C25.3774 39.0011 25.3722 39.0001 25.3669 39H11.5923C11.5837 38.9998 11.5753 39.0003 11.5668 39H2C1.60218 39 1.22064 38.842 0.93934 38.5607C0.658035 38.2794 0.5 37.8978 0.5 37.5C0.5 37.1022 0.658035 36.7206 0.93934 36.4393C1.22064 36.158 1.60218 36 2 36H6.60052C4.68703 34.309 3.1539 32.2314 2.10233 29.9043C1.05075 27.5772 0.504625 25.0536 0.5 22.5V13.5C0.500004 13.1022 0.65804 12.7206 0.939344 12.4393C1.22065 12.158 1.60218 12 2 12H35C36.9884 12.0022 38.8948 12.7931 40.3008 14.1992C41.7069 15.6052 42.4978 17.5116 42.5 19.5ZM39.5 19.5C39.4988 18.5698 39.2099 17.6627 38.6727 16.9032C38.1356 16.1437 37.3767 15.5691 36.5 15.258V22.5C36.4992 23.4428 36.4237 24.3841 36.2744 25.3151C37.205 25.039 38.0217 24.47 38.6028 23.6925C39.184 22.915 39.4987 21.9707 39.5 21V19.5Z" fill="#175F93"/>
</svg>
