<svg width="40" height="40" viewBox="0 0 40 40" fill="none" xmlns="http://www.w3.org/2000/svg">
<path fill-rule="evenodd" clip-rule="evenodd" d="M38 0C36.7194 0 35.4913 0.508708 34.5858 1.41421L28.8007 7.19929C28.304 7.69605 27.583 7.89574 26.9014 7.72536L4 2L1.96212 4.03788C1.18107 4.81893 1.18107 6.08526 1.96212 6.86631C2.11412 7.01831 2.28963 7.14482 2.4819 7.24095L20 16L12 24H3.23607C2.47852 24 1.786 24.428 1.44721 25.1056L0 28L8 32L12 40L14.8944 38.5528C15.572 38.214 16 37.5215 16 36.7639V28L24 20L32.759 37.5181C33.253 38.5061 34.4544 38.9065 35.4423 38.4125C35.6346 38.3164 35.8101 38.1899 35.9621 38.0379L38 36L32.2746 13.0986C32.1043 12.417 32.304 11.696 32.8007 11.1993L38.5858 5.41421C39.4913 4.50871 40 3.28058 40 2C40 0.89543 39.1046 0 38 0Z" fill="#175F93"/>
</svg>
