<svg width="24" height="24" viewBox="0 0 24 24" fill="none" xmlns="http://www.w3.org/2000/svg">
<path d="M0.681745 11.0957L5.29731 15.2133L4.01742 20.9509C3.89142 21.6996 4.14342 22.4482 4.78668 22.8226C5.04531 23.0743 5.42994 23.1969 5.81457 23.1969C6.0732 23.1969 6.3252 23.1969 6.58383 23.0743C6.58383 23.0743 6.70983 23.0743 6.70983 22.9517L11.962 20.0861L17.2142 22.9517C17.2142 22.9517 17.3402 22.9517 17.3402 23.0743C17.9835 23.326 18.7527 23.326 19.2634 22.9517C19.9066 22.5773 20.1586 21.8287 20.0326 21.08L18.7527 15.3424C19.2634 14.9681 20.0326 14.2194 20.8019 13.4708L23.2357 11.3474L23.3617 11.2248C23.8723 10.7278 24.0049 9.97918 23.7463 9.35314C23.4877 8.72711 22.977 8.23015 22.2078 8.10753H22.0818L16.0603 7.48149L13.6265 2.11824C13.6265 2.11824 13.6265 1.99562 13.5005 1.99562C13.3745 1.12433 12.7313 0.75 12.088 0.75C11.4448 0.75 10.8081 1.12433 10.4235 1.75037C10.4235 1.75037 10.4235 1.87299 10.2975 1.87299L7.86372 7.23624L1.84227 7.86227H1.71627C1.07301 7.9849 0.436376 8.48831 0.177745 9.10789C0.0384826 9.8501 0.164484 10.5988 0.681745 11.0957Z" fill="#FCC02A"/>
</svg>
