<svg width="46" height="46" viewBox="0 0 46 46" fill="none" xmlns="http://www.w3.org/2000/svg">
<g clip-path="url(#clip0_10_517)">
<path fill-rule="evenodd" clip-rule="evenodd" d="M46 23C46 35.7025 35.7025 46 23 46C10.2974 46 0 35.7025 0 23C0 10.2974 10.2974 0 23 0C35.7025 0 46 10.2974 46 23ZM23.8242 16.9796C21.5872 17.9101 17.1161 19.836 10.4112 22.7572C9.32238 23.1901 8.75204 23.6137 8.70011 24.0279C8.61235 24.7279 9.4889 25.0035 10.6825 25.3788C10.8449 25.43 11.0131 25.4828 11.1856 25.5388C12.3599 25.9206 13.9396 26.3672 14.7608 26.3848C15.5058 26.4009 16.3372 26.0939 17.2551 25.4635C23.5198 21.2348 26.7536 19.0973 26.9566 19.0512C27.0999 19.0187 27.2983 18.9778 27.4329 19.0974C27.5672 19.2169 27.5542 19.4432 27.5398 19.504C27.453 19.8741 24.0122 23.073 22.2316 24.7284C21.6765 25.2444 21.2829 25.6105 21.2024 25.6941C21.022 25.8815 20.8382 26.0586 20.6617 26.2288C19.5707 27.2805 18.7525 28.0692 20.7069 29.3572C21.6463 29.9761 22.3978 30.4878 23.1476 30.9984C23.9664 31.5562 24.7831 32.1124 25.8397 32.8051C26.109 32.9816 26.366 33.1648 26.6166 33.3433C27.5695 34.0227 28.4257 34.633 29.4833 34.5356C30.098 34.4791 30.7328 33.9012 31.0552 32.1778C31.817 28.1045 33.3147 19.2788 33.6609 15.6419C33.6914 15.3232 33.6532 14.9154 33.6226 14.7364C33.5919 14.5574 33.5279 14.3024 33.2952 14.1136C33.0196 13.89 32.5943 13.8428 32.4039 13.8462C31.5387 13.8614 30.2117 14.3229 23.8242 16.9796Z" fill="#175F93"/>
</g>
<defs>
<clipPath id="clip0_10_517">
<rect width="46" height="46" fill="white"/>
</clipPath>
</defs>
</svg>
